# AST/ASF file generated using VICON BodyLanguage
# -----------------------------------------------
:version 1.10
:name VICON
:units
  mass 1.0
  length 0.45
  angle deg
:documentation
   .ast/.asf automatically generated from VICON data using
   VICON BodyBuilder and BodyLanguage model FoxedUp or BRILLIANT.MOD
:root
   order TX TY TZ RX RY RZ
   axis XYZ
   position 0 0 0  
   orientation 0 0 0 
:bonedata
  begin
     id 1 
     name lhipjoint
     direction 0.547975 -0.797114 0.253638 
     length 2.36201 
     axis 0 0 0  XYZ
  end
  begin
     id 2 
     name lfemur
     direction 0.34202 -0.939693 0  
     length 7.69075  
     axis 0 0 20  XYZ
    dof rx ry rz
    limits (-160.0 20.0)
           (-70.0 70.0)
           (-60.0 70.0)
  end
  begin
     id 3 
     name ltibia
     direction 0.34202 -0.939693 0   
     length 7.91399   
     axis 0 0 20   XYZ
    dof rx
    limits (-10.0 170.0)
  end
  begin
     id 4 
     name lfoot
     direction 0.0705293 -0.193778 0.978507   
     length 2.13618   
     axis -90 7.62852e-016 20   XYZ
    dof rx rz
    limits (-45.0 90.0)
           (-70.0 20.0)
  end
  begin
     id 5 
     name ltoes
     direction 1.53592e-011 -4.21925e-011 1   
     length 1.07518   
     axis -90 7.62852e-016 20   XYZ
    dof rx
    limits (-90.0 20.0)
  end
  begin
     id 6 
     name rhipjoint
     direction -0.57 -0.782963 0.249136   
     length 2.4047  
     axis 0 0 0  XYZ 
  end
  begin
     id 7 
     name rfemur
     direction -0.34202 -0.939693 0   
     length 7.51486   
     axis 0 0 -20   XYZ
    dof rx ry rz
    limits (-160.0 20.0)
           (-70.0 70.0)
           (-70.0 60.0)
  end
  begin
     id 8 
     name rtibia
     direction -0.34202 -0.939693 0   
     length 8.08317   
     axis 0 0 -20   XYZ
    dof rx
    limits (-10.0 170.0)
 end
 begin
     id 9 
     name rfoot
     direction -0.104954 -0.281256 0.953876   
     length 2.30343  
     axis -90 -7.62852e-016 -20   XYZ
    dof rx rz
    limits (-45.0 90.0)
           (-20.0 70.0)
  end
  begin
     id 10 
     name rtoes
     direction -1.53556e-011 -4.21922e-011 1   
     length 1.14803   
     axis -90 -7.62852e-016 -20   XYZ
    dof rx
    limits (-90.0 20.0)
  end
  begin
     id 11 
     name lowerback
     direction -0.0152855 0.99353 -0.11254   
     length 2.05311   
     axis 0 0 0   XYZ
    dof rx ry rz
    limits (-20.0 45.0)
           (-30.0 30.0)
           (-30.0 30.0)
  end
  begin
     id 12 
     name upperback
     direction -0.00157509 0.999443 -0.033332   
     length 2.06353   
     axis 0 0 0   XYZ
    dof rx ry rz
    limits (-20.0 45.0)
           (-30.0 30.0)
           (-30.0 30.0)
  end
  begin
     id 13 
     name thorax
     direction 0.00577788 0.999804 0.0189484   
     length 2.08472   
     axis 0 0 0   XYZ
    dof rx ry rz
    limits (-20.0 45.0)
           (-30.0 30.0)
           (-30.0 30.0)
  end
  begin
     id 14 
     name lowerneck
     direction -1.09301e-005 0.994719 0.10264   
     length 1.76249   
     axis 0 0 0   XYZ
    dof rx ry rz
    limits (-20.0 45.0)
           (-30.0 30.0)
           (-30.0 30.0)
  end
  begin
     id 15 
     name upperneck
     direction 0.0495018 0.988526 -0.142706   
     length 1.77897   
     axis 0 0 0   XYZ
    dof rx ry rz
    limits (-20.0 45.0)
           (-30.0 30.0)
           (-30.0 30.0)
  end
  begin
     id 16
     name head
     direction 0.0142736 0.998114 -0.0597101  
     length 1.78934  
     axis 0 0 0   XYZ
    dof rx ry rz
    limits (-20.0 45.0)
           (-30.0 30.0)
           (-30.0 30.0)
  end
  begin
     id 17 
     name lclavicle
     direction 0.918111 0.396107 -0.0130883  
     length 3.37276  
     axis 0 0 0   XYZ
    dof ry rz
    limits (-20.0 10.0)
           (0.0 20.0)
  end
  begin
     id 18 
     name lhumerus
     direction 1 -4.48975e-011 -3.26108e-027   
     length 5.34298   
     axis 180 -30 -90   XYZ
    dof rx ry rz
    limits (-60.0 90.0)
           (-90.0 90.0)
           (-90.0 90.0)
  end
  begin
     id 19
     name lradius
     direction 1 -4.48964e-011 -8.84413e-028   
     length 3.67262   
     axis 180 -30 -90   XYZ
    dof rx
    limits (-10.0 170.0)
  end
  begin
     id 20
     name lwrist
     direction 1 -4.48991e-011 -1.24264e-027   
     length 1.83631   
     axis -2.17013e-015 90 90   XYZ
    dof ry
    limits (-180.0 0.0)
 end
  begin
     id 21 
     name lhand
     direction 1 -4.48855e-011 -2.48528e-027   
     length 0.599298   
     axis 1.58582e-015 90 90   XYZ
    dof rx rz
    limits (-90.0 90.0)
           (-45.0 45.0)
  end
  begin
     id 22 
     name lfingers
     direction 1 -4.48811e-011 -4.97056e-027   
     length 0.48317   
     axis 3.17164e-015 90 90   XYZ
    dof rx
    limits (0.0 90.0)
  end
  begin
     id 23
     name lthumb
     direction 0.707107 -6.34882e-011 0.707107   
     length 0.693738   
     axis -90 45 2.85299e-015   XYZ
    dof rx rz
    limits (-45.0 45.0)
           (-45.0 45.0)
  end
  begin
     id 24 
     name rclavicle
     direction -0.920511 0.384752 -0.0680135   
     length 3.43787  
     axis 0 0 0   XYZ 
    dof ry rz
    limits (-10.0 20.0)
           (-20.0 0.0)
  end
  begin
     id 25 
     name rhumerus
     direction -0.999976 -0.00330524 0.00603274  
     length 5.5498   
     axis 180 30 90   XYZ
    dof rx ry rz
    limits (-90.0 60.0)
           (-90.0 90.0)
           (-90.0 90.0)
  end
  begin
     id 26 
     name rradius
     direction -1 -4.48967e-011 8.62438e-027   
     length 3.69401   
     axis 180 30 90   XYZ
    dof rx
    limits (-10.0 170.0)
  end
  begin
     id 27 
     name rwrist
     direction -1 -4.4897e-011 9.54866e-027   
     length 1.84701   
     axis -7.69462e-015 -90 -90   XYZ
    dof ry
    limits (-180.0 0.0)
  end
  begin
     id 28
     name rhand
     direction -1 -4.48982e-011 1.90973e-026   
     length 0.638113   
     axis -1.21857e-014 -90 -90   XYZ
    dof rx rz
    limits (-90.0 90.0)
           (-45.0 45.0)
  end
  begin
     id 29
     name rfingers
     direction -1 -4.48936e-011 3.81946e-026   
     length 0.514463   
     axis -2.43714e-014 -90 -90   XYZ
    dof rx
    limits (0.0 90.0)
  end
  begin
     id 30
     name rthumb
     direction -0.707107 -6.34942e-011 0.707107   
     length 0.738669   
     axis -90 -45 -2.85299e-015   XYZ
    dof rx rz
    limits (-45.0 45.0)
           (-45.0 45.0)
  end
:hierarchy
  begin
    root lhipjoint rhipjoint lowerback
    lhipjoint lfemur
    lfemur ltibia
    ltibia lfoot
    lfoot ltoes
    rhipjoint rfemur
    rfemur rtibia
    rtibia rfoot
    rfoot rtoes
    lowerback upperback
    upperback thorax
    thorax lowerneck lclavicle rclavicle
    lowerneck upperneck
    upperneck head
    lclavicle lhumerus
    lhumerus lradius
    lradius lwrist
    lwrist lhand lthumb
    lhand lfingers
    rclavicle rhumerus
    rhumerus rradius
    rradius rwrist
    rwrist rhand rthumb
    rhand rfingers
  end

#!OML:ASF F:\twosubjects\two\Thursday\Session 1\Rory.ASF
:FULLY-SPECIFIED
:DEGREES
170
root 9.71204 17.8377 8.87254 0.252885 -58.4401 6.86739
lowerback 17.0175 -2.0754 -7.7033
upperback 10.4086 -4.22456 -2.20832
thorax 2.04321 -2.60273 2.58961
lowerneck 7.15706 -21.0784 -18.6443
upperneck -2.13975 -32.2949 36.9032
head 8.1113 -16.9054 11.0869
rclavicle 6.20208e-014 1.51076e-014
rhumerus -58.0379 -14.9779 -22.2712
rradius 11.8759
rwrist 68.2864
rhand -14.3984 11.2948
rfingers 7.12502
rthumb 11.7449 -18.3559
lclavicle 6.20208e-014 1.51076e-014
lhumerus -71.2313 1.31505 88.7286
lradius 27.75
lwrist -30.6815
lhand -5.14587 32.9507
lfingers 7.12502
lthumb 20.6533 61.8719
rfemur -29.6511 5.01963 2.89395
rtibia 51.9207
rfoot -16.5951 -14.3632
rtoes -4.11859
lfemur -24.021 -1.25176 -10.3192
ltibia 38.0576
lfoot -17.3679 -1.86918
ltoes -8.38013
171
root 9.70774 17.8347 8.81045 0.12747 -58.4358 6.99035
lowerback 16.9007 -2.0379 -7.71018
upperback 10.3895 -4.16583 -2.28126
thorax 2.07149 -2.57106 2.50286
lowerneck 7.02818 -21.0122 -18.4825
upperneck -1.90147 -32.1608 36.5389
head 8.04745 -16.8003 10.9779
rclavicle -4.92986e-014 5.00937e-014
rhumerus -58.5439 -15.8208 -21.1913
rradius 11.7309
rwrist 69.9851
rhand -14.102 12.0004
rfingers 7.12502
rthumb 12.0308 -17.6338
lclavicle -4.92986e-014 5.00937e-014
lhumerus -71.3007 1.69994 88.2823
lradius 27.3819
lwrist -30.6986
lhand -4.22431 30.5803
lfingers 7.12502
lthumb 21.5385 59.4027
rfemur -28.9918 5.26848 2.34489
rtibia 51.6377
rfoot -16.344 -15.0634
rtoes -2.6536
lfemur -23.9451 -1.31998 -10.2257
ltibia 37.6942
lfoot -17.2901 -1.30946
ltoes -11.82
172
root 9.7003 17.8333 8.74887 0.0863564 -58.409 6.98378
lowerback 16.8712 -2.01053 -7.52765
upperback 10.3314 -4.10411 -2.4002
thorax 1.99068 -2.52221 2.27083
lowerneck 7.06655 -20.9463 -18.2069
upperneck -1.87243 -31.9708 36.1908
head 7.85676 -16.7027 10.9004
rclavicle 1.74931e-014 6.67916e-014
rhumerus -59.1048 -16.4477 -20.3857
rradius 11.6308
rwrist 71.4174
rhand -16.4763 12.0158
rfingers 7.12502
rthumb 9.7406 -17.739
lclavicle 1.74931e-014 6.67916e-014
lhumerus -71.5984 1.61606 88.586
lradius 27.2181
lwrist -29.7649
lhand -4.05337 30.482
lfingers 7.12502
lthumb 21.7027 59.2855
rfemur -28.2154 5.6438 1.87166
rtibia 51.2865
rfoot -16.1794 -15.5227
rtoes -2.32173
lfemur -23.8148 -1.49847 -10.0002
ltibia 37.3165
lfoot -17.0893 -1.08485
ltoes -11.5958
173
root 9.69012 17.8282 8.67296 -0.143134 -58.2944 7.18868
lowerback 16.8252 -1.98498 -7.72012
upperback 10.3058 -4.09226 -2.43021
thorax 2.00071 -2.52329 2.34207
lowerneck 6.87113 -20.8547 -17.9998
upperneck -1.72787 -31.7641 35.8276
head 7.75009 -16.5647 10.798
rclavicle -4.85035e-014 -2.38542e-015
rhumerus -59.0034 -15.5306 -21.7359
rradius 11.6734
rwrist 70.1592
rhand -20.525 9.40726
rfingers 7.12502
rthumb 5.83297 -20.4924
lclavicle -4.85035e-014 -2.38542e-015
lhumerus -71.9272 1.82775 88.8076
lradius 27.0244
lwrist -29.2153
lhand -3.95231 30.4997
lfingers 7.12502
lthumb 21.7998 59.2919
rfemur -27.3733 5.95574 1.31178
rtibia 50.7931
rfoot -16.0827 -15.6278
rtoes -2.4787
lfemur -23.7288 -1.77428 -9.84373
ltibia 37.0053
lfoot -16.7998 -1.05498
ltoes -11.1904
174
root 9.67752 17.8239 8.59104 -0.521863 -58.1503 7.44515
lowerback 16.773 -1.89652 -8.0105
upperback 10.3652 -4.00994 -2.40511
thorax 2.11305 -2.50338 2.51108
lowerneck 6.64147 -20.8031 -18.1175
upperneck -1.50133 -31.714 35.6861
head 7.83433 -16.4947 10.7498
rclavicle 2.06736e-014 2.78299e-014
rhumerus -58.9306 -14.664 -23.055
rradius 11.6545
rwrist 68.7354
rhand -20.4161 11.1661
rfingers 7.12502
rthumb 5.93814 -18.7307
lclavicle 2.06736e-014 2.78299e-014
lhumerus -72.1643 2.21186 88.7355
lradius 26.7506
lwrist -29.2686
lhand -3.50534 31.0242
lfingers 7.12502
lthumb 22.2289 59.766
rfemur -26.3353 6.27401 0.810501
rtibia 50.2045
rfoot -15.6811 -15.9107
rtoes -3.97526
lfemur -23.5198 -2.04825 -9.70217
ltibia 36.6562
lfoot -16.6689 -1.35996
ltoes -7.9106
